solid OpenSCAD_Model
  facet normal -1 -0 0
    outer loop
      vertex 0 15.99 36
      vertex 0 0 28
      vertex 0 0 36
    endloop
  endfacet
  facet normal -1 0 -0
    outer loop
      vertex 0 15.99 36
      vertex 0 15.99 28
      vertex 0 0 28
    endloop
  endfacet
  facet normal 0 -1 0
    outer loop
      vertex 0 0 36
      vertex 0 0 28
      vertex 3.55271e-015 0 28
    endloop
  endfacet
  facet normal -0 -1 0
    outer loop
      vertex 15.99 0 36
      vertex 0 0 36
      vertex 3.55271e-015 0 28
    endloop
  endfacet
  facet normal 0 -1 0
    outer loop
      vertex 15.99 0 28
      vertex 15.99 0 36
      vertex 3.55271e-015 0 28
    endloop
  endfacet
  facet normal 0 0 -1
    outer loop
      vertex 15.99 0.01 0
      vertex 0.01 0.01 0
      vertex 0.01 15.99 0
    endloop
  endfacet
  facet normal -0 -0 -1
    outer loop
      vertex 15.99 15.99 0
      vertex 15.99 0.01 0
      vertex 0.01 15.99 0
    endloop
  endfacet
  facet normal 0 1 0
    outer loop
      vertex 0.01 15.99 27.99
      vertex 0 15.99 28
      vertex 0 15.99 36
    endloop
  endfacet
  facet normal 0 1 -0
    outer loop
      vertex 15.99 15.99 27.99
      vertex 0.01 15.99 27.99
      vertex 15.99 15.99 36
    endloop
  endfacet
  facet normal 0 1 0
    outer loop
      vertex 15.99 15.99 36
      vertex 0.01 15.99 27.99
      vertex 0 15.99 36
    endloop
  endfacet
  facet normal 0 1 0
    outer loop
      vertex 15.96 15.99 4.04
      vertex 0.01 15.99 0
      vertex 0.01 15.99 4.04
    endloop
  endfacet
  facet normal 0 1 0
    outer loop
      vertex 15.96 15.99 4.04
      vertex 15.99 15.99 0
      vertex 0.01 15.99 0
    endloop
  endfacet
  facet normal 0 1 0
    outer loop
      vertex 15.99 15.99 4.04
      vertex 15.99 15.99 0
      vertex 15.96 15.99 4.04
    endloop
  endfacet
  facet normal 0 1 0
    outer loop
      vertex 0.01 15.99 20
      vertex 0.01 15.99 24
      vertex 4 15.99 24
    endloop
  endfacet
  facet normal 0 1 0
    outer loop
      vertex 0.01 15.99 20
      vertex 4 15.99 24
      vertex 15.99 15.99 20
    endloop
  endfacet
  facet normal -0 1 0
    outer loop
      vertex 4 15.99 24
      vertex 15.99 15.99 24
      vertex 15.99 15.99 20
    endloop
  endfacet
  facet normal 0 0 -1
    outer loop
      vertex 15.99 0 36
      vertex 15.99 15.99 36
      vertex 16 0 36
    endloop
  endfacet
  facet normal 0 0 -1
    outer loop
      vertex 0 15.99 36
      vertex 0 16 36
      vertex 15.99 15.99 36
    endloop
  endfacet
  facet normal 0 0 -1
    outer loop
      vertex 15.99 15.99 36
      vertex 0 16 36
      vertex 16 16 36
    endloop
  endfacet
  facet normal 0 0 -1
    outer loop
      vertex 16 0 36
      vertex 15.99 15.99 36
      vertex 16 16 36
    endloop
  endfacet
  facet normal 1 0 0
    outer loop
      vertex 15.99 0.04 27.99
      vertex 15.99 0 28
      vertex 15.99 0.01 27.99
    endloop
  endfacet
  facet normal 1 0 -0
    outer loop
      vertex 15.99 15.99 27.99
      vertex 15.99 15.99 36
      vertex 15.99 0.04 27.99
    endloop
  endfacet
  facet normal 1 0 0
    outer loop
      vertex 15.99 0.04 27.99
      vertex 15.99 0 36
      vertex 15.99 0 28
    endloop
  endfacet
  facet normal 1 0 0
    outer loop
      vertex 15.99 15.99 36
      vertex 15.99 0 36
      vertex 15.99 0.04 27.99
    endloop
  endfacet
  facet normal 1 0 0
    outer loop
      vertex 15.99 15.99 4.04
      vertex 15.99 0.01 4.04
      vertex 15.99 0.01 0
    endloop
  endfacet
  facet normal 1 0 0
    outer loop
      vertex 15.99 15.99 0
      vertex 15.99 15.99 4.04
      vertex 15.99 0.01 0
    endloop
  endfacet
  facet normal 1 0 0
    outer loop
      vertex 15.99 4 20
      vertex 15.99 0.01 24
      vertex 15.99 0.01 20
    endloop
  endfacet
  facet normal 1 0 0
    outer loop
      vertex 15.99 15.99 20
      vertex 15.99 12 24
      vertex 15.99 12 20
    endloop
  endfacet
  facet normal 1 0 0
    outer loop
      vertex 15.99 15.99 24
      vertex 15.99 12 24
      vertex 15.99 15.99 20
    endloop
  endfacet
  facet normal 1 0 -0
    outer loop
      vertex 15.99 4 20
      vertex 15.99 12 24
      vertex 15.99 0.01 24
    endloop
  endfacet
  facet normal 1 0 0
    outer loop
      vertex 15.99 4 20
      vertex 15.99 12 20
      vertex 15.99 12 24
    endloop
  endfacet
  facet normal 0 -1 0
    outer loop
      vertex 15.99 0.01 20
      vertex 15.99 0.01 24
      vertex 0.01 0.01 24
    endloop
  endfacet
  facet normal 0 -1 0
    outer loop
      vertex 0.01 0.01 20
      vertex 15.99 0.01 20
      vertex 0.01 0.01 24
    endloop
  endfacet
  facet normal 0 -1 0
    outer loop
      vertex 15.99 0.01 0
      vertex 15.99 0.01 4.04
      vertex 15.96 0.01 4.04
    endloop
  endfacet
  facet normal 0 -1 0
    outer loop
      vertex 0.01 0.01 0
      vertex 15.99 0.01 0
      vertex 15.96 0.01 4.04
    endloop
  endfacet
  facet normal 0 -1 0
    outer loop
      vertex 0.01 0.01 4.04
      vertex 0.01 0.01 0
      vertex 15.96 0.01 4.04
    endloop
  endfacet
  facet normal -0 0 -1
    outer loop
      vertex 12 4.89843e-016 24
      vertex 0 0 24
      vertex 0.01 0.01 24
    endloop
  endfacet
  facet normal 0 0 -1
    outer loop
      vertex 8.88178e-016 4 24
      vertex 0.01 15.99 24
      vertex 0.01 0.01 24
    endloop
  endfacet
  facet normal 0 0 -1
    outer loop
      vertex 8.88178e-016 4 24
      vertex 0 15.99 24
      vertex 0.01 15.99 24
    endloop
  endfacet
  facet normal 0 -0 -1
    outer loop
      vertex 15.99 0.01 24
      vertex 15.99 1.22461e-018 24
      vertex 12 4.89843e-016 24
    endloop
  endfacet
  facet normal -0 0 -1
    outer loop
      vertex 15.99 0.01 24
      vertex 12 4.89843e-016 24
      vertex 0.01 0.01 24
    endloop
  endfacet
  facet normal -0 -0 -1
    outer loop
      vertex 15.99 1.22461e-018 24
      vertex 15.99 0 24
      vertex 12 4.89843e-016 24
    endloop
  endfacet
  facet normal 0 0 -1
    outer loop
      vertex 15.99 0 24
      vertex 0 0 24
      vertex 12 4.89843e-016 24
    endloop
  endfacet
  facet normal 0 0 -1
    outer loop
      vertex 0 0 24
      vertex 8.88178e-016 4 24
      vertex 0.01 0.01 24
    endloop
  endfacet
  facet normal 0 0 -1
    outer loop
      vertex 0 0 24
      vertex 0 15.99 24
      vertex 8.88178e-016 4 24
    endloop
  endfacet
  facet normal -1 0 0
    outer loop
      vertex 0.01 12 20
      vertex 0.01 15.99 24
      vertex 0.01 15.99 20
    endloop
  endfacet
  facet normal -1 0 0
    outer loop
      vertex 0.01 12 20
      vertex 0.01 0.01 24
      vertex 0.01 15.99 24
    endloop
  endfacet
  facet normal -1 0 0
    outer loop
      vertex 0.01 4 20
      vertex 0.01 0.01 24
      vertex 0.01 12 20
    endloop
  endfacet
  facet normal -1 0 0
    outer loop
      vertex 0.01 0.01 20
      vertex 0.01 0.01 24
      vertex 0.01 4 20
    endloop
  endfacet
  facet normal -1 -0 -0
    outer loop
      vertex 0.01 15.99 4.04
      vertex 0.01 15.99 0
      vertex 0.01 15.96 4.04
    endloop
  endfacet
  facet normal -1 0 -0
    outer loop
      vertex 0.01 15.96 4.04
      vertex 0.01 15.99 0
      vertex 0.01 0.01 0
    endloop
  endfacet
  facet normal -1 0 0
    outer loop
      vertex 0.01 15.96 4.04
      vertex 0.01 0.01 0
      vertex 0.01 0.01 4.04
    endloop
  endfacet
  facet normal -0.707107 -1.2543e-013 -0.707107
    outer loop
      vertex 0 15.99 28
      vertex 0.01 15.99 27.99
      vertex 4 12 24
    endloop
  endfacet
  facet normal -0.707107 -1.96262e-016 -0.707107
    outer loop
      vertex 4 4 24
      vertex 0 15.99 28
      vertex 4 12 24
    endloop
  endfacet
  facet normal 0 -0 -1
    outer loop
      vertex 4 15.99 24
      vertex 4 4 24
      vertex 4 12 24
    endloop
  endfacet
  facet normal -0.658505 0 -0.752577
    outer loop
      vertex 4 4 24
      vertex 3.55271e-015 0 28
      vertex 0 0 28
    endloop
  endfacet
  facet normal -0.707107 -1.57107e-016 -0.707107
    outer loop
      vertex 4 4 24
      vertex 0 0 28
      vertex 0 15.99 28
    endloop
  endfacet
  facet normal 0 0 1
    outer loop
      vertex 8.88178e-016 4 24
      vertex 4 4 24
      vertex 4 15.99 24
    endloop
  endfacet
  facet normal 0 0 1
    outer loop
      vertex 0 3.55271e-015 24
      vertex 8.88178e-016 4 24
      vertex 0 15.99 24
    endloop
  endfacet
  facet normal -0 0 1
    outer loop
      vertex 0 15.99 24
      vertex 8.88178e-016 4 24
      vertex 4 15.99 24
    endloop
  endfacet
  facet normal 0.707107 1.31251e-016 -0.707107
    outer loop
      vertex 12 4 24
      vertex 12.8 12.8 24.8
      vertex 15.99 0.04 27.99
    endloop
  endfacet
  facet normal 0.707107 1.57009e-016 -0.707107
    outer loop
      vertex 12 4 24
      vertex 12 12 24
      vertex 12.8 12.8 24.8
    endloop
  endfacet
  facet normal 0.707107 0 -0.707107
    outer loop
      vertex 15.99 0.01 27.99
      vertex 12 4 24
      vertex 15.99 0.04 27.99
    endloop
  endfacet
  facet normal -0 0 -1
    outer loop
      vertex 12 1 24
      vertex 12 4.89843e-016 24
      vertex 12 4 24
    endloop
  endfacet
  facet normal 0 0 -1
    outer loop
      vertex 12 4.89843e-016 24
      vertex 12 12 24
      vertex 12 4 24
    endloop
  endfacet
  facet normal 0 0 1
    outer loop
      vertex 15 12 24
      vertex 12 12 24
      vertex 12 4.89843e-016 24
    endloop
  endfacet
  facet normal 0.707107 0 -0.707107
    outer loop
      vertex 12.8 12.8 24.8
      vertex 15.99 15.99 27.99
      vertex 15.99 0.04 27.99
    endloop
  endfacet
  facet normal 0 -0 1
    outer loop
      vertex 15.99 1.22461e-018 24
      vertex 15.99 12 24
      vertex 15 12 24
    endloop
  endfacet
  facet normal -0 0 1
    outer loop
      vertex 12 4.89843e-016 24
      vertex 15.99 1.22461e-018 24
      vertex 15 12 24
    endloop
  endfacet
  facet normal 0 0 1
    outer loop
      vertex 0 0 24
      vertex 8.88178e-016 4 24
      vertex 0 3.55271e-015 24
    endloop
  endfacet
  facet normal -1.25553e-013 -0.707107 -0.707107
    outer loop
      vertex 15.99 0 28
      vertex 12 4 24
      vertex 15.99 0.01 27.99
    endloop
  endfacet
  facet normal 0 0 -1
    outer loop
      vertex 4 4 24
      vertex 8.88178e-016 4 24
      vertex 12 4 24
    endloop
  endfacet
  facet normal -0 -0.707107 -0.707107
    outer loop
      vertex 15.99 0 28
      vertex 3.55271e-015 0 28
      vertex 4 4 24
    endloop
  endfacet
  facet normal 0 -0.707107 -0.707107
    outer loop
      vertex 15.99 0 28
      vertex 4 4 24
      vertex 12 4 24
    endloop
  endfacet
  facet normal 0 -0 1
    outer loop
      vertex 15.99 0 24
      vertex 15.99 1.22461e-018 24
      vertex 12 4.89843e-016 24
    endloop
  endfacet
  facet normal 0 0 1
    outer loop
      vertex 0 0 24
      vertex 15.99 0 24
      vertex 12 4.89843e-016 24
    endloop
  endfacet
  facet normal 0 0 1
    outer loop
      vertex 12 1 24
      vertex 8.88178e-016 4 24
      vertex 0 0 24
    endloop
  endfacet
  facet normal 0 0 1
    outer loop
      vertex 12 1 24
      vertex 0 0 24
      vertex 12 4.89843e-016 24
    endloop
  endfacet
  facet normal 0 -0 1
    outer loop
      vertex 12 1 24
      vertex 12 4 24
      vertex 8.88178e-016 4 24
    endloop
  endfacet
  facet normal -0 0 1
    outer loop
      vertex 4 12 24
      vertex 15.99 12 24
      vertex 15.99 15.99 24
    endloop
  endfacet
  facet normal -0 0 1
    outer loop
      vertex 4 15.99 24
      vertex 4 12 24
      vertex 15.99 15.99 24
    endloop
  endfacet
  facet normal 0 0.707107 -0.707107
    outer loop
      vertex 4 12 24
      vertex 12.8 12.8 24.8
      vertex 12 12 24
    endloop
  endfacet
  facet normal 1.31169e-016 0.707107 -0.707107
    outer loop
      vertex 4 12 24
      vertex 0.01 15.99 27.99
      vertex 12.8 12.8 24.8
    endloop
  endfacet
  facet normal 0 0 -1
    outer loop
      vertex 12 12 24
      vertex 15 12 24
      vertex 15.99 12 24
    endloop
  endfacet
  facet normal -0 -0 -1
    outer loop
      vertex 12 12 24
      vertex 15.99 12 24
      vertex 4 12 24
    endloop
  endfacet
  facet normal 0 0.707107 -0.707107
    outer loop
      vertex 15.99 15.99 27.99
      vertex 12.8 12.8 24.8
      vertex 0.01 15.99 27.99
    endloop
  endfacet
  facet normal 0 0 -1
    outer loop
      vertex 12 4 20
      vertex 15.99 12 20
      vertex 15.99 4 20
    endloop
  endfacet
  facet normal 0 0 -1
    outer loop
      vertex 12 4 20
      vertex 12 12 20
      vertex 15.99 12 20
    endloop
  endfacet
  facet normal 0.970143 -0 0.242536
    outer loop
      vertex 12 4 20
      vertex 15.99 15.99 4.04
      vertex 12 12 20
    endloop
  endfacet
  facet normal 0.970143 -5.40563e-017 0.242536
    outer loop
      vertex 12 4 20
      vertex 15.99 0.01 4.04
      vertex 15.99 15.99 4.04
    endloop
  endfacet
  facet normal 2.0322e-016 0.970143 0.242536
    outer loop
      vertex 3.2 12.8 16.8
      vertex 15.96 15.99 4.04
      vertex 0.01 15.99 4.04
    endloop
  endfacet
  facet normal 1.77689e-016 0.80024 0.59968
    outer loop
      vertex 4 12 20
      vertex 0.01 12 20
      vertex 12 12 20
    endloop
  endfacet
  facet normal 1.4361e-014 0.970143 0.242536
    outer loop
      vertex 15.99 15.99 4.04
      vertex 15.96 15.99 4.04
      vertex 12 12 20
    endloop
  endfacet
  facet normal 4.50188e-017 0.970143 0.242536
    outer loop
      vertex 15.96 15.99 4.04
      vertex 3.2 12.8 16.8
      vertex 12 12 20
    endloop
  endfacet
  facet normal 2.18781e-016 0.970143 0.242536
    outer loop
      vertex 3.2 12.8 16.8
      vertex 4 12 20
      vertex 12 12 20
    endloop
  endfacet
  facet normal 0 0.894427 0.447214
    outer loop
      vertex 4 12 20
      vertex 3 12 20
      vertex 0.01 12 20
    endloop
  endfacet
  facet normal 0 1 -0
    outer loop
      vertex 12 12 20
      vertex 0.01 12 20
      vertex 15.99 12 20
    endloop
  endfacet
  facet normal 0 0 -1
    outer loop
      vertex 0.01 15.99 20
      vertex 15.99 15.99 20
      vertex 15.99 12 20
    endloop
  endfacet
  facet normal 0 0 -1
    outer loop
      vertex 0.01 12 20
      vertex 0.01 15.99 20
      vertex 15.99 12 20
    endloop
  endfacet
  facet normal 0 0 -1
    outer loop
      vertex 3 12 20
      vertex 4 12 20
      vertex 4 4 20
    endloop
  endfacet
  facet normal 0 0 -1
    outer loop
      vertex 1 4 20
      vertex 3 12 20
      vertex 4 4 20
    endloop
  endfacet
  facet normal -0.970143 1.6935e-016 0.242536
    outer loop
      vertex 3.2 3.2 16.8
      vertex 0.01 15.96 4.04
      vertex 0.01 0.01 4.04
    endloop
  endfacet
  facet normal -0.970143 1.07707e-016 0.242536
    outer loop
      vertex 4 12 20
      vertex 3.2 12.8 16.8
      vertex 4 4 20
    endloop
  endfacet
  facet normal -0.970143 1.2622e-016 0.242536
    outer loop
      vertex 4 4 20
      vertex 3.2 12.8 16.8
      vertex 3.2 3.2 16.8
    endloop
  endfacet
  facet normal -0.970143 -5.60976e-017 0.242536
    outer loop
      vertex 0.01 15.99 4.04
      vertex 0.01 15.96 4.04
      vertex 3.2 12.8 16.8
    endloop
  endfacet
  facet normal -0.970143 1.6882e-016 0.242536
    outer loop
      vertex 0.01 15.96 4.04
      vertex 3.2 3.2 16.8
      vertex 3.2 12.8 16.8
    endloop
  endfacet
  facet normal 0 0 -1
    outer loop
      vertex 0.01 12 20
      vertex 3 12 20
      vertex 1 4 20
    endloop
  endfacet
  facet normal 0 0 -1
    outer loop
      vertex 0.01 4 20
      vertex 0.01 12 20
      vertex 1 4 20
    endloop
  endfacet
  facet normal 0 0 -1
    outer loop
      vertex 0.01 0.01 20
      vertex 15.99 4 20
      vertex 15.99 0.01 20
    endloop
  endfacet
  facet normal 0 0 -1
    outer loop
      vertex 0.01 0.01 20
      vertex 0.01 4 20
      vertex 15.99 4 20
    endloop
  endfacet
  facet normal -1.35056e-016 -0.970143 0.242536
    outer loop
      vertex 15.96 0.01 4.04
      vertex 12 4 20
      vertex 3.2 3.2 16.8
    endloop
  endfacet
  facet normal -8.30079e-017 -0.995645 -0.0932249
    outer loop
      vertex 0.01 4 20
      vertex 4 4 20
      vertex 15.99 4 20
    endloop
  endfacet
  facet normal -1.27871e-029 -0.970143 0.242536
    outer loop
      vertex 15.99 0.01 4.04
      vertex 12 4 20
      vertex 15.96 0.01 4.04
    endloop
  endfacet
  facet normal -2.15415e-016 -0.970143 0.242536
    outer loop
      vertex 12 4 20
      vertex 4 4 20
      vertex 3.2 3.2 16.8
    endloop
  endfacet
  facet normal -2.0795e-016 -0.936521 0.35061
    outer loop
      vertex 15.99 4 20
      vertex 4 4 20
      vertex 12 4 20
    endloop
  endfacet
  facet normal 0 -1 0
    outer loop
      vertex 0.01 4 20
      vertex 1 4 20
      vertex 4 4 20
    endloop
  endfacet
  facet normal -1.05196e-016 -0.970143 0.242536
    outer loop
      vertex 0.01 0.01 4.04
      vertex 15.96 0.01 4.04
      vertex 3.2 3.2 16.8
    endloop
  endfacet
  facet normal 0 0.83205 0.5547
    outer loop
      vertex 8 8 48
      vertex 16 16 36
      vertex 0 16 36
    endloop
  endfacet
  facet normal -0.83205 0 0.5547
    outer loop
      vertex 8 8 48
      vertex 0 16 36
      vertex 0 15.99 36
    endloop
  endfacet
  facet normal -0.83205 0 0.5547
    outer loop
      vertex 0 0 36
      vertex 8 8 48
      vertex 0 15.99 36
    endloop
  endfacet
  facet normal 0 -0.83205 0.5547
    outer loop
      vertex 15.99 0 36
      vertex 16 0 36
      vertex 8 8 48
    endloop
  endfacet
  facet normal 0 -0.83205 0.5547
    outer loop
      vertex 0 0 36
      vertex 15.99 0 36
      vertex 8 8 48
    endloop
  endfacet
  facet normal 0.83205 -0 0.5547
    outer loop
      vertex 16 0 36
      vertex 16 16 36
      vertex 8 8 48
    endloop
  endfacet
endsolid OpenSCAD_Model
