solid OpenSCAD_Model
  facet normal -1 0 0
    outer loop
      vertex -24 24 2
      vertex -24 -24 2
      vertex -24 -24 12
    endloop
  endfacet
  facet normal -1 -0 -0
    outer loop
      vertex -24 24 12
      vertex -24 24 2
      vertex -24 -24 12
    endloop
  endfacet
  facet normal 0 -1 0
    outer loop
      vertex -24 -24 12
      vertex -24 -24 2
      vertex 24 -24 2
    endloop
  endfacet
  facet normal -0 -1 -0
    outer loop
      vertex 24 -24 12
      vertex -24 -24 12
      vertex 24 -24 2
    endloop
  endfacet
  facet normal 0 1 0
    outer loop
      vertex 24 24 2
      vertex -24 24 2
      vertex -24 24 12
    endloop
  endfacet
  facet normal 0 1 0
    outer loop
      vertex 24 24 12
      vertex 24 24 2
      vertex -24 24 12
    endloop
  endfacet
  facet normal 0 0 1
    outer loop
      vertex 8.5 -8.5 12
      vertex -24 -24 12
      vertex 24 -24 12
    endloop
  endfacet
  facet normal 0 0 1
    outer loop
      vertex -8.5 8.5 12
      vertex -24 24 12
      vertex -8.5 -8.5 12
    endloop
  endfacet
  facet normal 0 0 1
    outer loop
      vertex -24 24 12
      vertex -24 -24 12
      vertex -8.5 -8.5 12
    endloop
  endfacet
  facet normal 0 0 1
    outer loop
      vertex 8.5 8.5 12
      vertex -24 24 12
      vertex -8.5 8.5 12
    endloop
  endfacet
  facet normal 0 0 1
    outer loop
      vertex 24 24 12
      vertex 8.5 8.5 12
      vertex 24 -24 12
    endloop
  endfacet
  facet normal 0 0 1
    outer loop
      vertex 24 24 12
      vertex -24 24 12
      vertex 8.5 8.5 12
    endloop
  endfacet
  facet normal 0 0 1
    outer loop
      vertex -24 -24 12
      vertex 8.5 -8.5 12
      vertex -8.5 -8.5 12
    endloop
  endfacet
  facet normal 0 0 1
    outer loop
      vertex 24 -24 12
      vertex 8.5 8.5 12
      vertex 8.5 -8.5 12
    endloop
  endfacet
  facet normal 1 0 0
    outer loop
      vertex 24 -24 12
      vertex 24 -24 2
      vertex 24 24 2
    endloop
  endfacet
  facet normal 1 0 0
    outer loop
      vertex 24 24 12
      vertex 24 -24 12
      vertex 24 24 2
    endloop
  endfacet
  facet normal 1 0 -0
    outer loop
      vertex -8.5 8.5 6
      vertex -8.5 8.5 12
      vertex -8.5 -8.5 12
    endloop
  endfacet
  facet normal 1 0 0
    outer loop
      vertex -8.5 -8.5 6
      vertex -8.5 8.5 6
      vertex -8.5 -8.5 12
    endloop
  endfacet
  facet normal -0 1 0
    outer loop
      vertex -8.5 -8.5 12
      vertex 8.5 -8.5 12
      vertex 8.5 -8.5 6
    endloop
  endfacet
  facet normal 0 1 0
    outer loop
      vertex -8.5 -8.5 6
      vertex -8.5 -8.5 12
      vertex 8.5 -8.5 6
    endloop
  endfacet
  facet normal 0 -1 0
    outer loop
      vertex 8.5 8.5 6
      vertex 8.5 8.5 12
      vertex -8.5 8.5 12
    endloop
  endfacet
  facet normal 0 -1 0
    outer loop
      vertex -8.5 8.5 6
      vertex 8.5 8.5 6
      vertex -8.5 8.5 12
    endloop
  endfacet
  facet normal -1 0 0
    outer loop
      vertex 8.5 -8.5 12
      vertex 8.5 8.5 12
      vertex 8.5 8.5 6
    endloop
  endfacet
  facet normal -1 0 0
    outer loop
      vertex 8.5 -8.5 6
      vertex 8.5 -8.5 12
      vertex 8.5 8.5 6
    endloop
  endfacet
  facet normal 0 0 -1
    outer loop
      vertex 24 -24 2
      vertex -24 -24 2
      vertex -24 24 2
    endloop
  endfacet
  facet normal -0 -0 -1
    outer loop
      vertex 24 24 2
      vertex 24 -24 2
      vertex -24 24 2
    endloop
  endfacet
  facet normal 0 0 1
    outer loop
      vertex -8.5 8.5 6
      vertex -8.5 -8.5 6
      vertex 8.5 -8.5 6
    endloop
  endfacet
  facet normal 0 0 1
    outer loop
      vertex 8.5 8.5 6
      vertex -8.5 8.5 6
      vertex 8.5 -8.5 6
    endloop
  endfacet
endsolid OpenSCAD_Model
