solid OpenSCAD_Model
  facet normal -1 0 0
    outer loop
      vertex 0.01 0.01 4.04
      vertex 0.01 15.99 4.04
      vertex 0.01 15.99 0
    endloop
  endfacet
  facet normal -1 0 0
    outer loop
      vertex 0.01 0.01 4.04
      vertex 0.01 15.99 0
      vertex 0.01 0.01 0
    endloop
  endfacet
  facet normal 0 -1 0
    outer loop
      vertex 15.99 0.01 0
      vertex 15.99 0.01 4.04
      vertex 0.01 0.01 4.04
    endloop
  endfacet
  facet normal 0 -1 0
    outer loop
      vertex 0.01 0.01 0
      vertex 15.99 0.01 0
      vertex 0.01 0.01 4.04
    endloop
  endfacet
  facet normal 0 0 -1
    outer loop
      vertex 0.01 0.01 0
      vertex 0.01 15.99 0
      vertex 15.99 0.01 0
    endloop
  endfacet
  facet normal 0 0 -1
    outer loop
      vertex 15.99 0.01 0
      vertex 0.01 15.99 0
      vertex 15.99 15.99 0
    endloop
  endfacet
  facet normal -1.07707e-016 -0.970143 0.242536
    outer loop
      vertex 4 4 20
      vertex 15.99 0.01 4.04
      vertex 12 4 20
    endloop
  endfacet
  facet normal -1.07707e-016 -0.970143 0.242536
    outer loop
      vertex 15.99 4 20
      vertex 0.01 4 20
      vertex 12 4 20
    endloop
  endfacet
  facet normal -1.07707e-016 -0.970143 0.242536
    outer loop
      vertex 4 4 20
      vertex 0.01 0.01 4.04
      vertex 15.99 0.01 4.04
    endloop
  endfacet
  facet normal -1.07707e-016 -0.970143 0.242536
    outer loop
      vertex 0.01 4 20
      vertex 4 4 20
      vertex 12 4 20
    endloop
  endfacet
  facet normal 0 1 0
    outer loop
      vertex 0.01 15.99 0
      vertex 0.01 15.99 4.04
      vertex 15.99 15.99 0
    endloop
  endfacet
  facet normal 0 1 0
    outer loop
      vertex 15.99 15.99 0
      vertex 0.01 15.99 4.04
      vertex 15.99 15.99 4.04
    endloop
  endfacet
  facet normal -0.970143 1.72658e-016 0.242536
    outer loop
      vertex 4 12 20
      vertex 0.01 15.99 4.04
      vertex 4 4 20
    endloop
  endfacet
  facet normal -0.970143 1.72658e-016 0.242536
    outer loop
      vertex 4 4 20
      vertex 0.01 15.99 4.04
      vertex 0.01 0.01 4.04
    endloop
  endfacet
  facet normal 1 0 0
    outer loop
      vertex 15.99 0.01 4.04
      vertex 15.99 0.01 0
      vertex 15.99 15.99 0
    endloop
  endfacet
  facet normal 1 0 0
    outer loop
      vertex 15.99 15.99 4.04
      vertex 15.99 0.01 4.04
      vertex 15.99 15.99 0
    endloop
  endfacet
  facet normal -1.22461e-016 -2.22045e-016 -1
    outer loop
      vertex 4 12 20
      vertex 4 4 20
      vertex 0.01 12 20
    endloop
  endfacet
  facet normal -1.22461e-016 -2.22045e-016 -1
    outer loop
      vertex 0.01 12 20
      vertex 4 4 20
      vertex 0.01 4 20
    endloop
  endfacet
  facet normal -1 0 0
    outer loop
      vertex 0.01 4 24
      vertex 0.01 15.99 24
      vertex 0.01 15.99 20
    endloop
  endfacet
  facet normal -1 0 0
    outer loop
      vertex 0.01 4 24
      vertex 0.01 15.99 20
      vertex 0.01 0.01 24
    endloop
  endfacet
  facet normal -1 0 0
    outer loop
      vertex 0.01 15.99 20
      vertex 0.01 12 20
      vertex 0.01 0.01 24
    endloop
  endfacet
  facet normal -1 0 0
    outer loop
      vertex 0.01 12 20
      vertex 0.01 4 20
      vertex 0.01 0.01 24
    endloop
  endfacet
  facet normal -1 0 0
    outer loop
      vertex 0.01 0.01 20
      vertex 0.01 0.01 24
      vertex 0.01 4 20
    endloop
  endfacet
  facet normal -1.2326e-032 -1.11022e-016 -1
    outer loop
      vertex 15.99 4 20
      vertex 15.99 0.01 20
      vertex 0.01 4 20
    endloop
  endfacet
  facet normal -1.2326e-032 -1.11022e-016 -1
    outer loop
      vertex 0.01 4 20
      vertex 15.99 0.01 20
      vertex 0.01 0.01 20
    endloop
  endfacet
  facet normal 1 0 0
    outer loop
      vertex 15.99 12 20
      vertex 15.99 15.99 20
      vertex 15.99 0.01 24
    endloop
  endfacet
  facet normal 1 0 0
    outer loop
      vertex 15.99 0.01 24
      vertex 15.99 0.01 20
      vertex 15.99 4 20
    endloop
  endfacet
  facet normal 1 0 0
    outer loop
      vertex 15.99 12 20
      vertex 15.99 0.01 24
      vertex 15.99 4 20
    endloop
  endfacet
  facet normal 1 0 0
    outer loop
      vertex 15.99 15.99 20
      vertex 15.99 12 24
      vertex 15.99 0.01 24
    endloop
  endfacet
  facet normal 1 0 0
    outer loop
      vertex 15.99 15.99 20
      vertex 15.99 15.99 24
      vertex 15.99 12 24
    endloop
  endfacet
  facet normal 1.22461e-016 2.22045e-016 -1
    outer loop
      vertex 15.99 4 20
      vertex 12 4 20
      vertex 15.99 12 20
    endloop
  endfacet
  facet normal 1.22461e-016 2.22045e-016 -1
    outer loop
      vertex 15.99 12 20
      vertex 12 4 20
      vertex 12 12 20
    endloop
  endfacet
  facet normal 0.970143 -5.38537e-017 0.242536
    outer loop
      vertex 12 4 20
      vertex 15.99 0.01 4.04
      vertex 15.99 15.99 4.04
    endloop
  endfacet
  facet normal 0.970143 -5.38537e-017 0.242536
    outer loop
      vertex 12 12 20
      vertex 12 4 20
      vertex 15.99 15.99 4.04
    endloop
  endfacet
  facet normal 1.07707e-016 0.970143 0.242536
    outer loop
      vertex 0.01 15.99 4.04
      vertex 12 12 20
      vertex 15.99 15.99 4.04
    endloop
  endfacet
  facet normal 1.07707e-016 0.970143 0.242536
    outer loop
      vertex 4 12 20
      vertex 12 12 20
      vertex 0.01 15.99 4.04
    endloop
  endfacet
  facet normal 1.07707e-016 0.970143 0.242536
    outer loop
      vertex 15.99 12 20
      vertex 12 12 20
      vertex 4 12 20
    endloop
  endfacet
  facet normal 1.07707e-016 0.970143 0.242536
    outer loop
      vertex 15.99 12 20
      vertex 4 12 20
      vertex 0.01 12 20
    endloop
  endfacet
  facet normal 0 -1 0
    outer loop
      vertex 15.99 0.01 20
      vertex 15.99 0.01 24
      vertex 12 0.01 24
    endloop
  endfacet
  facet normal 0 -1 0
    outer loop
      vertex 0.01 0.01 24
      vertex 15.99 0.01 20
      vertex 12 0.01 24
    endloop
  endfacet
  facet normal 0 -1 0
    outer loop
      vertex 0.01 0.01 24
      vertex 0.01 0.01 20
      vertex 15.99 0.01 20
    endloop
  endfacet
  facet normal -2.22045e-016 4.93038e-032 1
    outer loop
      vertex 12 0.01 24
      vertex 12 4 24
      vertex 0.01 4 24
    endloop
  endfacet
  facet normal -2.22045e-016 4.93038e-032 1
    outer loop
      vertex 0.01 0.01 24
      vertex 12 0.01 24
      vertex 0.01 4 24
    endloop
  endfacet
  facet normal 1.2326e-032 1.11022e-016 -1
    outer loop
      vertex 15.99 15.99 20
      vertex 15.99 12 20
      vertex 0.01 15.99 20
    endloop
  endfacet
  facet normal 1.2326e-032 1.11022e-016 -1
    outer loop
      vertex 0.01 15.99 20
      vertex 15.99 12 20
      vertex 0.01 12 20
    endloop
  endfacet
  facet normal 0 1 0
    outer loop
      vertex 0.01 15.99 20
      vertex 0.01 15.99 24
      vertex 15.99 15.99 20
    endloop
  endfacet
  facet normal 0 1 0
    outer loop
      vertex 15.99 15.99 20
      vertex 0.01 15.99 24
      vertex 4 15.99 24
    endloop
  endfacet
  facet normal 0 1 0
    outer loop
      vertex 15.99 15.99 20
      vertex 4 15.99 24
      vertex 15.99 15.99 24
    endloop
  endfacet
  facet normal 0 2.22045e-016 1
    outer loop
      vertex 4 4 24
      vertex 4 15.99 24
      vertex 0.01 15.99 24
    endloop
  endfacet
  facet normal 0 2.22045e-016 1
    outer loop
      vertex 0.01 4 24
      vertex 4 4 24
      vertex 0.01 15.99 24
    endloop
  endfacet
  facet normal 0 -0.707107 -0.707107
    outer loop
      vertex 4 4 24
      vertex 12 4 24
      vertex 15.99 0.01 27.99
    endloop
  endfacet
  facet normal 0 -0.707107 -0.707107
    outer loop
      vertex 0.01 4 24
      vertex 12 4 24
      vertex 4 4 24
    endloop
  endfacet
  facet normal 0 -0.707107 -0.707107
    outer loop
      vertex 0.01 0.01 27.99
      vertex 4 4 24
      vertex 15.99 0.01 27.99
    endloop
  endfacet
  facet normal -2.71917e-032 -2.22045e-016 1
    outer loop
      vertex 15.99 0.01 24
      vertex 15.99 12 24
      vertex 12 12 24
    endloop
  endfacet
  facet normal -2.71917e-032 -2.22045e-016 1
    outer loop
      vertex 12 0.01 24
      vertex 15.99 0.01 24
      vertex 12 12 24
    endloop
  endfacet
  facet normal 0 0.707107 -0.707107
    outer loop
      vertex 12 12 24
      vertex 15.99 12 24
      vertex 4 12 24
    endloop
  endfacet
  facet normal 0 0.707107 -0.707107
    outer loop
      vertex 12 12 24
      vertex 4 12 24
      vertex 15.99 15.99 27.99
    endloop
  endfacet
  facet normal 0 0.707107 -0.707107
    outer loop
      vertex 4 12 24
      vertex 0.01 15.99 27.99
      vertex 15.99 15.99 27.99
    endloop
  endfacet
  facet normal 2.22045e-016 -4.93038e-032 1
    outer loop
      vertex 4 12 24
      vertex 15.99 12 24
      vertex 15.99 15.99 24
    endloop
  endfacet
  facet normal 2.22045e-016 -4.93038e-032 1
    outer loop
      vertex 4 15.99 24
      vertex 4 12 24
      vertex 15.99 15.99 24
    endloop
  endfacet
  facet normal 0.707107 7.04165e-017 -0.707107
    outer loop
      vertex 12 4 24
      vertex 12 12 24
      vertex 15.99 0.01 27.99
    endloop
  endfacet
  facet normal 0.707107 7.04165e-017 -0.707107
    outer loop
      vertex 15.99 0.01 27.99
      vertex 12 12 24
      vertex 15.99 15.99 27.99
    endloop
  endfacet
  facet normal 0.707107 7.04165e-017 -0.707107
    outer loop
      vertex 12 0.01 24
      vertex 12 12 24
      vertex 12 4 24
    endloop
  endfacet
  facet normal -0.707107 -1.57009e-016 -0.707107
    outer loop
      vertex 4 4 24
      vertex 4 12 24
      vertex 4 15.99 24
    endloop
  endfacet
  facet normal -0.707107 -1.57009e-016 -0.707107
    outer loop
      vertex 0.01 15.99 27.99
      vertex 4 12 24
      vertex 4 4 24
    endloop
  endfacet
  facet normal -0.707107 -1.57009e-016 -0.707107
    outer loop
      vertex 0.01 15.99 27.99
      vertex 4 4 24
      vertex 0.01 0.01 27.99
    endloop
  endfacet
  facet normal 0 -1 0
    outer loop
      vertex 0.01 0.01 27.99
      vertex 15.99 0.01 27.99
      vertex 15.99 0.01 36.01
    endloop
  endfacet
  facet normal 0 -1 0
    outer loop
      vertex 0.01 0.01 36.01
      vertex 0.01 0.01 27.99
      vertex 15.99 0.01 36.01
    endloop
  endfacet
  facet normal 1 0 0
    outer loop
      vertex 15.99 15.99 36.01
      vertex 15.99 0.01 36.01
      vertex 15.99 15.99 27.99
    endloop
  endfacet
  facet normal 1 0 0
    outer loop
      vertex 15.99 15.99 27.99
      vertex 15.99 0.01 36.01
      vertex 15.99 0.01 27.99
    endloop
  endfacet
  facet normal 0 1 0
    outer loop
      vertex 0.01 15.99 27.99
      vertex 0.01 15.99 36.01
      vertex 15.99 15.99 36.01
    endloop
  endfacet
  facet normal 0 1 0
    outer loop
      vertex 0.01 15.99 27.99
      vertex 15.99 15.99 36.01
      vertex 15.99 15.99 27.99
    endloop
  endfacet
  facet normal -1 0 0
    outer loop
      vertex 0.01 0.01 36.01
      vertex 0.01 15.99 36.01
      vertex 0.01 15.99 27.99
    endloop
  endfacet
  facet normal -1 0 0
    outer loop
      vertex 0.01 0.01 36.01
      vertex 0.01 15.99 27.99
      vertex 0.01 0.01 27.99
    endloop
  endfacet
  facet normal -7.85046e-017 -0.707107 0.707107
    outer loop
      vertex 15.99 0.01 36.01
      vertex 12.01 3.99 39.99
      vertex 3.99 3.99 39.99
    endloop
  endfacet
  facet normal -7.85046e-017 -0.707107 0.707107
    outer loop
      vertex 0.01 0.01 36.01
      vertex 15.99 0.01 36.01
      vertex 3.99 3.99 39.99
    endloop
  endfacet
  facet normal 0.707107 -1.57009e-016 0.707107
    outer loop
      vertex 12.01 3.99 39.99
      vertex 15.99 0.01 36.01
      vertex 12.01 12.01 39.99
    endloop
  endfacet
  facet normal 0.707107 -1.57009e-016 0.707107
    outer loop
      vertex 12.01 12.01 39.99
      vertex 15.99 0.01 36.01
      vertex 15.99 15.99 36.01
    endloop
  endfacet
  facet normal 7.85046e-017 0.707107 0.707107
    outer loop
      vertex 3.99 12.01 39.99
      vertex 12.01 12.01 39.99
      vertex 15.99 15.99 36.01
    endloop
  endfacet
  facet normal 7.85046e-017 0.707107 0.707107
    outer loop
      vertex 0.01 15.99 36.01
      vertex 3.99 12.01 39.99
      vertex 15.99 15.99 36.01
    endloop
  endfacet
  facet normal -0.707107 2.43602e-016 0.707107
    outer loop
      vertex 3.99 3.99 39.99
      vertex 3.99 12.01 39.99
      vertex 0.01 15.99 36.01
    endloop
  endfacet
  facet normal -0.707107 2.43602e-016 0.707107
    outer loop
      vertex 0.01 0.01 36.01
      vertex 3.99 3.99 39.99
      vertex 0.01 15.99 36.01
    endloop
  endfacet
  facet normal 0 0 1
    outer loop
      vertex 3.99 12.01 39.99
      vertex 3.99 3.99 39.99
      vertex 12.01 3.99 39.99
    endloop
  endfacet
  facet normal 0 0 1
    outer loop
      vertex 12.01 12.01 39.99
      vertex 3.99 12.01 39.99
      vertex 12.01 3.99 39.99
    endloop
  endfacet
endsolid OpenSCAD_Model
